<svg width="668" height="668" viewBox="0 0 668 668" fill="none" xmlns="http://www.w3.org/2000/svg">
<path d="M21.8 531.268C24.1143 541.321 29.0313 550.589 36.0578 558.142C43.0843 565.695 51.9733 571.268 61.8333 574.301L67.8333 600.668H67.3333V667.335H600.667V600.668H156.767C157.204 597.588 157.125 594.456 156.533 591.401L150 562.635L495.233 484.101L501.767 512.868C503.507 520.5 508.206 527.128 514.832 531.297C521.457 535.466 529.466 536.835 537.1 535.101L565.867 528.535C569.648 527.677 573.223 526.082 576.387 523.841C579.551 521.601 582.243 518.758 584.308 515.477C586.373 512.195 587.771 508.539 588.421 504.717C589.072 500.894 588.963 496.981 588.1 493.201L579.733 456.435C594.6 442.568 602.067 421.568 597.233 400.335L577.567 314.001C575.18 303.6 570.002 294.047 562.59 286.37C555.177 278.693 545.811 273.184 535.5 270.435L467.2 157.835C457.128 141.291 442.116 128.328 424.281 120.774C406.446 113.22 386.69 111.458 367.8 115.735L105.533 175.401C86.6227 179.685 69.5414 189.815 56.7132 204.355C43.885 218.894 35.9613 237.104 34.0666 256.401L21.1666 387.468C13.0756 394.415 7.03124 403.437 3.68353 413.562C0.335831 423.687 -0.188603 434.534 2.16662 444.935L21.8 531.268ZM122.467 508.335C116.8 509.626 110.935 509.789 105.205 508.813C99.4759 507.838 93.9948 505.743 89.0748 502.649C84.1549 499.556 79.8925 495.523 76.5309 490.782C73.1694 486.041 70.7746 480.684 69.4833 475.018C68.1919 469.351 68.0294 463.486 69.0048 457.757C69.9803 452.027 72.0747 446.546 75.1684 441.626C78.2621 436.706 82.2946 432.444 87.0357 429.082C91.7767 425.721 97.1334 423.326 102.8 422.035C114.244 419.427 126.255 421.472 136.192 427.72C146.128 433.968 153.175 443.907 155.783 455.351C158.391 466.795 156.346 478.807 150.098 488.743C143.85 498.679 133.911 505.727 122.467 508.335ZM496.533 423.268C490.77 424.852 484.745 425.253 478.823 424.446C472.9 423.639 467.203 421.64 462.073 418.572C456.944 415.503 452.489 411.427 448.978 406.59C445.466 401.753 442.971 396.255 441.642 390.427C440.313 384.6 440.178 378.563 441.245 372.682C442.312 366.801 444.559 361.197 447.85 356.208C451.142 351.218 455.41 346.947 460.397 343.652C465.384 340.357 470.986 338.106 476.867 337.035C488.085 334.991 499.659 337.355 509.177 343.635C518.695 349.914 525.423 359.624 527.959 370.742C530.494 381.859 528.642 393.526 522.787 403.312C516.933 413.097 507.528 420.246 496.533 423.268ZM120.3 240.401L382.6 180.701C387.856 179.514 393.352 180.004 398.315 182.103C403.277 184.201 407.457 187.803 410.267 192.401L463.1 279.501L444.233 283.801L109.367 360.035L90.4333 364.335L100.4 262.935C100.936 257.567 103.146 252.503 106.717 248.46C110.288 244.416 115.04 241.597 120.3 240.401ZM547.5 67.3346L500.667 0.667969L484 100.668L567.333 234.001L667.333 267.335L600.667 182.701L667.333 151.601L600.667 120.501L667.333 0.667969L547.5 67.3346Z" fill="#307ABB"/>
</svg>
