<svg width="289" height="284" viewBox="0 0 289 284" fill="none" xmlns="http://www.w3.org/2000/svg">
<ellipse cx="144.5" cy="142" rx="144.5" ry="142" fill="url(#paint0_linear_7107_17587)"/>
<g clip-path="url(#clip0_7107_17587)">
<path fill-rule="evenodd" clip-rule="evenodd" d="M182.5 136.5C191.613 136.5 199 143.887 199 153C199 157.887 196.876 162.277 193.5 165.299V192.55C193.5 194.595 191.348 195.924 189.52 195.01L182.5 191.5L175.48 195.01C173.652 195.924 171.5 194.595 171.5 192.55V165.299C168.125 162.277 166 157.887 166 153C166 143.887 173.387 136.5 182.5 136.5ZM188 98C194.075 98 199 102.925 199 109V130.998C194.404 127.546 188.691 125.5 182.5 125.5C167.312 125.5 155 137.812 155 153C155 159.19 157.053 164.909 160.5 169.501V186H100C93.9249 186 89 181.075 89 175V109C89 102.925 93.9249 98 100 98H188ZM122 147.5H111C107.962 147.5 105.5 149.962 105.5 153C105.5 156.038 107.962 158.5 111 158.5H122C125.038 158.5 127.5 156.038 127.5 153C127.5 149.962 125.038 147.5 122 147.5ZM144 125.5H111C107.962 125.5 105.5 127.962 105.5 131C105.5 133.821 107.623 136.145 110.359 136.463L111 136.5H144C147.038 136.5 149.5 134.038 149.5 131C149.5 128.179 147.377 125.855 144.641 125.537L144 125.5Z" fill="white"/>
</g>
<defs>
<linearGradient id="paint0_linear_7107_17587" x1="-3.60431" y1="121.944" x2="295.226" y2="121.944" gradientUnits="userSpaceOnUse">
<stop stop-color="#47A7ED"/>
<stop offset="1" stop-color="#2E77B8"/>
</linearGradient>
<clipPath id="clip0_7107_17587">
<rect width="132" height="132" fill="white" transform="translate(78 76)"/>
</clipPath>
</defs>
</svg>
