<svg width="289" height="284" viewBox="0 0 289 284" fill="none" xmlns="http://www.w3.org/2000/svg">
<ellipse cx="144.5" cy="142" rx="144.5" ry="142" fill="url(#paint0_linear_7107_17654)"/>
<path d="M171.111 197.432H158.539V190.219C157.681 190.482 156.771 190.639 155.83 190.676C155.387 190.694 153.357 190.737 150.973 190.777V196.351C151.832 198.522 152.931 200.617 151.903 203.694C152.596 204.492 153.616 204.999 154.756 204.999H171.111C173.2 204.999 174.894 203.305 174.894 201.215C174.894 199.126 173.2 197.432 171.111 197.432Z" fill="white"/>
<path d="M155.792 158.143L154.185 158.155L156.479 161.759C156.479 161.759 154.354 159.701 144.148 150.363L139.123 138.638C138.437 137.038 136.585 136.296 134.984 136.982C133.383 137.668 132.642 139.521 133.328 141.122L138.624 153.478C138.802 153.894 139.068 154.268 139.404 154.572C148.648 162.938 151.994 165.935 151.994 165.935L145.869 162.433V179.225L137.244 179.2C137.243 179.2 137.242 179.2 137.24 179.2C137.238 179.2 137.236 179.2 137.233 179.2C134.566 179.2 132.734 181.893 133.716 184.375L140.93 202.607C141.702 204.556 143.971 205.579 146.008 204.657C147.835 203.83 148.712 201.708 147.966 199.824L142.805 186.783C142.805 186.783 152.49 186.811 155.846 186.783C158.595 186.759 161.051 184.413 161.059 181.342L161.108 163.437C161.117 160.478 158.695 158.121 155.792 158.143Z" fill="white"/>
<path d="M156.137 147.756C155.557 143.957 152.007 141.348 148.208 141.928C147.022 142.11 145.952 142.581 145.059 143.258L147.685 149.385L151.998 155.205C154.847 153.988 156.627 150.961 156.137 147.756Z" fill="white"/>
<path d="M201.523 198.403H197.449V145.246H200.572C202.111 145.246 203.358 143.999 203.358 142.461C203.358 140.922 202.111 139.675 200.572 139.675H197.449V84.0735C197.449 81.8237 195.625 80 193.376 80C191.126 80 189.302 81.8237 189.302 84.0735V139.675H173.019V136.673C176.688 136.673 178.714 134.105 178.714 131.394V120.42C178.714 116.542 177.147 113.03 174.614 110.48L174.437 109.53L177.27 106.544H182.885C184.535 106.544 185.873 105.207 185.873 103.557V101.284C185.873 99.6341 184.535 98.2964 182.885 98.2964H176.987C175.337 98.2964 173.999 99.6338 173.999 101.284C173.999 103.592 173.99 103.621 174.016 103.867L173.486 104.426L169.717 84.2256C169.471 82.907 168.32 81.9507 166.979 81.9507H120.439C119.097 81.9507 117.946 82.907 117.7 84.2256L113.922 104.478L113.342 103.867C113.367 103.622 113.358 103.592 113.358 101.284C113.358 99.6341 112.021 98.2964 110.371 98.2964H104.473C102.823 98.2964 101.485 99.6338 101.485 101.284V103.557C101.485 105.206 102.823 106.544 104.473 106.544H110.088L112.97 109.583L112.803 110.48C110.269 113.03 108.703 116.542 108.703 120.42V131.394C108.703 134.047 110.667 136.673 114.398 136.673V139.675H98.0557V84.0735C98.0557 81.8237 96.2317 80 93.9822 80C91.7327 80 89.9087 81.8237 89.9087 84.0735V139.675H86.7856C85.2473 139.675 84 140.922 84 142.46C84 143.999 85.2473 145.246 86.7856 145.246H89.9087V198.403H85.8352C85.0855 198.403 84.4773 199.011 84.4773 199.761V203.563C84.4773 204.313 85.0855 204.921 85.8352 204.921H93.9822H102.129C102.879 204.921 103.487 204.313 103.487 203.563V199.761C103.487 199.011 102.879 198.403 102.129 198.403H98.0557V145.246H114.961C115.984 147.555 118.294 149.167 120.983 149.167C124.619 149.167 127.567 146.22 127.567 142.583V136.673H130.243C130.945 135.362 132.078 134.272 133.551 133.64C136.814 132.242 140.564 133.599 142.208 136.673H159.85V142.583C159.85 146.219 162.798 149.167 166.435 149.167C169.123 149.167 171.434 147.555 172.456 145.246H189.302V198.403H185.229C184.479 198.403 183.871 199.011 183.871 199.761V203.563C183.871 204.313 184.479 204.921 185.229 204.921H193.376H201.523C202.273 204.921 202.881 204.313 202.881 203.563V199.761C202.881 199.011 202.273 198.403 201.523 198.403ZM120.808 127.58C117.618 127.58 115.032 124.992 115.032 121.8C115.032 118.608 117.618 116.02 120.808 116.02C123.998 116.02 126.584 118.608 126.584 121.8C126.584 124.992 123.998 127.58 120.808 127.58ZM150.204 132.106H137.213C136.052 132.106 135.111 131.165 135.111 130.004C135.111 128.843 136.052 127.902 137.213 127.902H150.204C151.365 127.902 152.306 128.843 152.306 130.004C152.306 131.165 151.365 132.106 150.204 132.106ZM153.674 124.098H133.743C132.582 124.098 131.641 123.157 131.641 121.996C131.641 120.835 132.582 119.894 133.743 119.894H153.674C154.835 119.894 155.776 120.835 155.776 121.996C155.776 123.157 154.835 124.098 153.674 124.098ZM150.354 106.316C150.673 104.103 152.577 102.395 154.877 102.395C157.176 102.395 159.08 104.103 159.399 106.316H150.354ZM154.877 97.7522C150.014 97.7522 146.022 101.538 145.685 106.316H122.808C121.545 106.316 120.323 106.484 119.158 106.795L122.753 87.5217H138.281C138.018 87.9104 137.865 88.3787 137.865 88.8831C137.865 90.2273 138.955 91.3172 140.299 91.3172H147.119C148.463 91.3172 149.553 90.2273 149.553 88.8831C149.553 88.3787 149.4 87.9104 149.137 87.5217H164.665L168.26 106.795C166.44 106.309 165.11 106.316 164.068 106.316C163.731 101.538 159.739 97.7522 154.877 97.7522ZM166.609 127.58C163.419 127.58 160.833 124.992 160.833 121.8C160.833 118.608 163.419 116.02 166.609 116.02C169.799 116.02 172.385 118.608 172.385 121.8C172.385 124.992 169.799 127.58 166.609 127.58Z" fill="white"/>
<defs>
<linearGradient id="paint0_linear_7107_17654" x1="-3.60431" y1="121.944" x2="295.226" y2="121.944" gradientUnits="userSpaceOnUse">
<stop stop-color="#47A7ED"/>
<stop offset="1" stop-color="#2E77B8"/>
</linearGradient>
</defs>
</svg>
