<svg width="16" height="13" viewBox="0 0 16 13" fill="none" xmlns="http://www.w3.org/2000/svg">
<path d="M13.4682 0H2.53102C1.13532 0 0 1.1354 0 2.53102V9.92766C0 11.3234 1.13539 12.4587 2.53102 12.4587H13.4682C14.8639 12.4587 15.9992 11.3233 15.9992 9.92766L16 2.53102C16 1.13532 14.8639 0 13.4682 0ZM15.0324 10.7596L9.98008 5.62296L15.2411 2.87472V9.92766C15.2411 10.2282 15.1652 10.5114 15.0324 10.7596ZM2.53098 0.758899H13.4682C14.2795 0.758899 14.9641 1.30761 15.1735 2.05367L7.99915 5.80134L0.826337 2.05367C1.0358 1.30763 1.71968 0.758899 2.53098 0.758899ZM0.967547 10.7596C0.834732 10.5114 0.75884 10.2283 0.75884 9.92704V2.87488L6.01984 5.6237L0.967547 10.7596ZM2.53098 11.6999C2.1295 11.6999 1.76066 11.5641 1.46314 11.3387L6.72259 5.99122L7.99913 6.65834L9.27644 5.99122L14.5367 11.3395C14.2392 11.5649 13.8695 11.7007 13.4681 11.7007L2.53098 11.6999Z" fill="black"/>
</svg>
