<svg width="921" height="196" viewBox="0 0 921 196" fill="none" xmlns="http://www.w3.org/2000/svg">
<g clip-path="url(#clip0_7008_21222)">
<mask id="path-1-outside-1_7008_21222" maskUnits="userSpaceOnUse" x="0" y="0" width="921" height="196" fill="black">
<rect fill="white" width="921" height="196"/>
<path d="M0 0H921V195H0V0Z"/>
</mask>
<path d="M213.728 9.66537C214.543 7.4156 217.802 5.78096 217.802 5.78096C217.802 5.78096 213.377 4.80557 212.152 5.31042C211.864 5.43296 210.237 2.86704 210.047 3.16848C209.371 2.03134 208.84 3.78117 208.337 3.83508C207.422 3.93801 200.658 6.54069 200.658 6.54069C200.658 6.54069 201.368 8.24885 201.473 8.66057C201.573 9.06984 203.758 12.0156 207.425 13.5498C209.357 14.361 212.413 18.6669 213.123 19.4854C213.123 19.4854 216.587 14.3708 216.482 14.062C216.441 13.9345 215.162 12.692 214.548 11.6112C213.833 10.4864 213.46 10.4055 213.728 9.66537Z" fill="#DDAC9E"/>
<path d="M248.011 35.258C238.812 35.1403 215.08 11.4688 215.08 11.4688L210.996 21.0339L224.239 37.1671L243.293 53.0307L248.011 35.258Z" fill="#BFB8B8"/>
<path d="M155.51 176.726C155.51 179.268 153.524 181.329 151.07 181.329H128.118C125.664 181.329 123.681 179.268 123.681 176.726V135.346C123.681 132.826 125.664 130.758 128.118 130.758H151.07C153.527 130.758 155.51 132.826 155.51 135.346V176.726Z" fill="black"/>
<path d="M287.255 176.726C287.255 179.258 285.27 181.329 282.816 181.329H259.871C257.417 181.329 255.431 179.258 255.431 176.726V135.346C255.431 132.826 257.417 130.758 259.871 130.758H282.816C285.27 130.758 287.255 132.826 287.255 135.346V176.726Z" fill="#232121"/>
<path d="M279.823 100.376C278.962 99.6926 275.849 98.4697 271.012 97.0703C267.312 87.7502 259.698 67.1787 254.485 65.1275C243.276 60.7235 215.077 58.2924 207.186 57.9297H204.083C196.199 58.2899 167.522 60.7235 156.308 65.1275C151.092 67.1787 143.484 87.7502 139.779 97.0703C134.934 98.4672 131.826 99.6901 130.975 100.376C127.765 102.928 120.227 108.545 122.261 126.17C123.488 136.821 128.126 162.691 128.126 162.691C128.126 162.691 134.205 162.691 135.524 162.691H275.264C276.589 162.691 277.32 162.691 277.32 162.691C277.32 162.691 286.146 138.176 286.146 126.17C286.146 107.775 283.033 102.928 279.823 100.376ZM205.395 89.0319C182.807 88.5515 162.128 91.7032 148.287 94.8818C151.895 85.7161 157.389 72.2959 161.343 70.7397C171.405 66.7866 197.175 64.679 204.251 64.3604H207.037C214.106 64.6814 239.39 66.7866 249.448 70.7397C253.407 72.2959 258.896 85.7136 262.511 94.8818C248.665 91.7032 227.991 88.5466 205.395 89.0319Z" fill="#BFB8B8"/>
<path d="M285.755 85.9107L278.167 84.6413C274.407 84.0114 270.973 86.0529 270.768 89.2879C270.59 89.8589 270.302 90.6161 269.28 91.2705L265.111 92.1822C263.879 92.4566 263.089 93.709 263.347 94.9907C263.613 96.2626 265.631 98.0541 266.865 97.7894L272.824 96.4734C274.203 98.0615 275.722 98.0272 278.164 97.8654L285.753 97.3458C288.324 97.162 290.217 95.1181 290.217 92.7336V90.9445C290.22 88.582 288.327 86.3396 285.755 85.9107Z" fill="#D8D8D8"/>
<path d="M123.552 85.9107L131.126 84.6413C134.895 84.0114 138.329 86.0529 138.539 89.2879C138.722 89.8589 139.008 90.6161 140.03 91.2705L144.196 92.1822C145.43 92.4566 146.218 93.709 145.948 94.9907C145.689 96.2626 144.16 98.0884 142.923 97.8164L136.959 96.5052C135.578 98.0884 133.58 98.0271 131.126 97.8679L123.552 97.3483C120.973 97.1645 119.088 95.1206 119.088 92.736V90.947C119.088 88.582 120.973 86.3396 123.552 85.9107Z" fill="#BFB8B8"/>
<path d="M282.577 162.691C282.577 162.691 287.405 138.867 288.729 126.17C290.593 108.167 283.221 102.928 280.006 100.376C279.155 99.6926 276.037 98.4697 271.192 97.0703C267.502 87.7502 259.881 67.1787 254.666 65.1275C243.454 60.7235 215.265 58.2924 207.374 57.9297H205.659V64.358H207.222C214.296 64.679 239.571 66.7842 249.645 70.7372C253.592 72.2934 259.076 85.7063 262.689 94.8793C248.867 91.7007 228.22 88.5638 205.661 89.0294V162.691H271.017C272.324 162.691 282.577 162.691 282.577 162.691Z" fill="#D8D8D8"/>
<path d="M172.669 155.281H238.127C245.579 155.281 251.668 149.188 252.18 141.488H158.611C159.138 149.188 165.221 155.281 172.669 155.281Z" fill="#BFB8B8"/>
<path d="M171.99 120.104C169.436 115.636 169.436 113.148 173.505 113.148H240.127C244.94 113.342 243.757 116.236 241.927 120.003L240.164 123.665C238.349 127.431 235.007 130.514 230.935 130.514H182.567C178.501 130.514 175.252 127.387 173.544 123.564L171.99 120.104Z" fill="#BFB8B8"/>
<path d="M160.935 120.416C160.999 123.104 155.573 123.195 152.51 123.195H133.79C130.731 123.195 128.245 120.634 128.245 117.458V115.546C128.245 112.382 130.031 111.535 133.68 110.29L149.534 107.415C156.291 107.322 161.06 115.336 161.06 118.507L160.935 120.416Z" fill="#BFB8B8"/>
<path d="M159.208 120.108C159.208 123 154.215 122.639 151.429 122.639H134.4C131.611 122.639 129.353 120.304 129.353 117.427V115.677C129.353 112.8 130.984 112.032 134.29 110.89L148.716 108.278C154.871 108.2 159.208 115.486 159.208 118.373V120.108Z" fill="#BFB8B8"/>
<path d="M250.87 120.416C250.799 123.104 256.229 123.195 259.298 123.195H278.023C281.072 123.195 283.558 120.634 283.558 117.458V115.546C283.558 112.382 281.77 111.535 278.128 110.29L262.272 107.415C255.507 107.322 250.743 115.336 250.743 118.507L250.87 120.416Z" fill="#BFB8B8"/>
<path d="M252.599 120.108C252.599 123 257.588 122.639 260.371 122.639H277.405C280.186 122.639 282.448 120.304 282.448 117.427V115.677C282.448 112.8 280.813 112.032 277.508 110.89L263.081 108.278C256.929 108.2 252.599 115.486 252.599 118.373V120.108Z" fill="#D8D8D8"/>
<path d="M256.139 17.9102C255.915 20.1281 258.591 27.4852 259.979 30.5706C261.354 33.6585 261.169 34.0163 261.169 34.0163L250.177 44.2065C250.177 44.2065 250.694 30.9235 246.972 29.2423C244.664 28.2179 256.139 17.9102 256.139 17.9102Z" fill="#E8C8BA"/>
<path d="M246.723 28.6359C246.172 28.1972 246.852 26.9204 247.821 25.5995L248.58 25.2539L254.544 38.8824L251.814 41.24L250.058 38.9682C250.058 38.9682 250.419 31.5645 246.723 28.6359Z" fill="#E8C8BA"/>
<path d="M240.988 17.5878C240.61 23.994 243.935 30.981 247.157 31.1795C250.372 31.3658 257.717 26.158 258.093 19.7591C258.476 13.3701 254.512 7.50301 248.423 8.06913C241.779 8.69162 241.376 11.1914 240.988 17.5878Z" fill="#E8C8BA"/>
<path d="M242.086 7.11927C240.564 9.86898 240.774 11.783 242.252 12.0795C243.728 12.381 245.221 12.3467 246.172 13.3098C247.053 14.2141 248.677 14.5499 249.355 15.1626C250.024 15.7801 249.011 12.5966 249.011 12.5966L250.002 15.0792L250.029 12.7535L250.382 13.9789L252.57 15.9566L252.839 19.2577L254.334 20.5885L255.032 18.226L255.929 22.2868L258.779 27.5608C258.779 27.5608 260.842 23.1446 261.445 21.0909C262.162 18.6622 261.955 18.0863 262.035 16.6698C262.135 14.8905 262.147 14.4715 262.113 12.7976C262.072 10.9718 260.75 8.21719 259.613 7.7344C258.474 7.25406 257.793 6.91096 257.164 7.14133C256.52 7.36924 256.634 6.00909 254.968 5.3817C253.309 4.73716 253.378 4.48719 250.914 4.17104C248.445 3.85735 246.706 4.45532 244.635 5.23711C243.267 5.73951 242.086 7.11927 242.086 7.11927Z" fill="#300901"/>
<path d="M273.742 192.987L276.001 193.212C276.001 193.212 283.582 192.602 279.84 187.541C277.601 184.51 276.564 180.986 275.627 177.89C275.03 175.932 267.98 177.758 267.98 177.758C267.98 177.758 269.822 183.272 268.897 185.095C264.931 192.987 273.742 192.987 273.742 192.987Z" fill="#232121"/>
<path d="M246.472 175.955C245.657 179.231 247.533 182.376 242.262 184.267C239.834 185.14 235.87 186.919 236.244 189.372C236.758 192.71 244.025 191.514 244.025 191.514C244.025 191.514 252.175 188.23 254.619 188.23C257.066 188.23 256.081 181.559 255.266 178.278C254.449 175.011 246.472 175.955 246.472 175.955Z" fill="black"/>
<path d="M260.52 32.0625C264.433 33.2781 272.004 34.9421 272.907 36.4542C273.815 37.9663 269.148 51.8864 268.541 56.1213C267.938 60.3611 239.927 60.6625 239.927 60.6625L238.395 47.186C238.395 47.186 239.466 37.8364 240.39 37.3414C242.759 36.0719 247.718 34.2142 249.453 33.9961C250.123 37.1723 249.567 38.1918 250.921 39.5593C252.28 40.9121 260.52 32.0625 260.52 32.0625Z" fill="#BFB8B8"/>
<path d="M260.408 31.8398C264.323 33.0505 271.241 34.5552 272.148 36.0649C273.058 37.5819 269.15 47.9509 269.294 57.6362C269.338 60.435 254.404 60.0134 246.067 60.4423C247.179 51.9799 249.294 41.4614 250.014 38.7632C253.07 40.4591 260.408 31.8398 260.408 31.8398Z" fill="#D8D8D8"/>
<path d="M248.197 34.6121C245.786 37.9402 242.942 50.0762 242.942 50.0762H240.53C240.53 50.0762 241.481 39.8959 246.018 35.1635C246.952 34.1857 248.197 34.6121 248.197 34.6121Z" fill="#4D87DB"/>
<path d="M240.212 47.5609C240.212 47.5609 250.697 48.6074 257.022 48.3035C257.022 47.0928 263.686 36.2777 265.265 34.1211L267.189 34.349C267.189 34.349 262.442 45.8405 262.442 48.8745C262.442 51.8987 270.202 54.173 270.351 54.6239C270.829 56.0649 268.246 71.8746 267.941 75.2051C267.884 75.8497 267.941 76.9598 268.063 78.3371C273.083 90.5001 273.346 113.135 274.1 121.708C275.081 132.92 283.906 178.092 277.586 183.005L267.641 182.63C267.641 182.63 260.013 147.97 259.173 144.637C258.351 141.304 253.734 110.459 253.734 110.459C253.734 110.459 256.658 139.017 257.542 146.009C261.459 176.876 256.258 181.574 256.258 181.574L245.054 181.189C245.054 181.189 241.059 148.038 240.124 139.721C236.678 109.04 238.236 79.0675 238.236 79.0675C237.624 61.508 239.305 52.0972 240.212 47.5609Z" fill="#3357BC"/>
<path d="M257.022 48.2486C257.022 47.0428 263.801 35.37 265.379 33.2109L268.658 34.1226C268.658 34.1226 262.442 45.7905 262.442 48.8123C262.442 51.8438 270.202 54.1157 270.351 54.5666C270.829 56.0003 268.246 71.8124 267.941 75.1454C267.885 75.7826 267.941 76.9001 268.063 78.2847C273.083 90.4404 273.347 113.08 274.1 121.645C275.081 132.85 283.907 178.034 277.586 182.953L273.876 182.372C273.876 182.372 262.155 86.5069 261.35 77.6451C260.262 65.6145 257.022 48.2486 257.022 48.2486Z" fill="#4D87DB"/>
<path opacity="0.5" d="M258.278 61.9751L241.429 12.7595C239.283 7.75024 235.06 5.63281 229.63 5.63281H129.95C124.517 5.63281 120.292 7.75024 118.146 12.7595L102.287 61.9751C100.502 66.1462 102.068 69.6826 105.781 70.7389C110.132 73.7214 141.827 76.0374 182.75 76.0374C223.81 76.0374 251.277 73.7018 254.892 70.7119C258.527 69.6091 260.051 66.1046 258.278 61.9751Z" fill="#D8D8D8"/>
<path d="M130.482 75.8199C117.026 74.8322 108.283 73.7 105.373 71.982C102.412 71.112 100.526 68.6196 100.556 65.6175C100.556 64.4313 100.831 63.1839 101.343 61.9929L117.236 12.6915C119.514 7.29258 124.283 4.92763 129.947 4.96929H229.633C235.292 4.92763 240.058 7.29503 242.359 12.7602L259.198 61.9463C259.732 63.2084 259.998 64.4436 259.998 65.6199C260.03 68.5755 258.198 71.0434 255.317 71.9477C252.672 73.7294 245.176 74.8126 232.931 75.8125C220.446 76.7707 203.297 77.3589 182.745 77.3589C162.267 77.3565 144.096 76.7756 130.482 75.8199ZM119.085 13.3875L103.192 62.6938C102.734 63.7549 102.529 64.745 102.529 65.6175C102.561 67.8501 103.734 69.4112 106.049 70.117L106.193 70.1587L106.332 70.2469C107.922 71.4527 117.141 72.9452 130.618 73.8397C144.167 74.793 162.306 75.3714 182.745 75.3714C203.256 75.3714 220.368 74.7881 232.782 73.8299C245.12 72.9427 253.097 71.3963 254.263 70.2714L254.412 70.1415L254.607 70.0852C256.849 69.372 257.998 67.8158 258.022 65.615C258.022 64.7377 257.822 63.7476 257.363 62.6864L258.273 62.2992L257.339 62.6202L240.517 13.4733C238.5 8.85369 234.821 6.99114 229.628 6.94458H129.943C124.749 6.99604 121.063 8.85615 119.085 13.3875Z" fill="#414E5B"/>
<path d="M211.72 8.77322L208.093 13.9271L203.922 20.397L194.303 15.6573L201.38 4.53346C201.38 4.53346 207.639 2.16605 208.732 3.43798C209.82 4.71481 211.72 8.77322 211.72 8.77322Z" fill="url(#paint0_linear_7008_21222)"/>
<path d="M209.635 2.5066C207.254 1.21262 200.134 2.38897 200.519 6.13368C200.902 9.87104 204.639 11.1944 205.215 10.7754C205.215 10.7754 205.6 10.7092 205.429 10.4249C205.049 9.81468 204.163 8.5354 203.922 7.56246C205.929 10.3759 206.934 10.8562 207.803 10.7116C208.662 10.5695 206.178 6.38365 206.178 6.38365C206.178 6.38365 208.764 10.7165 209.91 10.0475C210.628 9.63087 208.115 5.12153 208.115 5.12153C208.115 5.12153 211.077 9.27062 211.723 8.77067C212.728 8.00114 210.045 2.71246 210.045 2.71246L209.635 2.5066Z" fill="#E8C8BA"/>
<path d="M227.511 56.1297L212.994 76.1865L184.687 76.5443L217.348 26.7773L227.511 56.1297Z" fill="url(#paint1_linear_7008_21222)"/>
<path d="M269.968 49.9278L252.185 91.6784L238.575 75.8148L261.437 45.5508L269.968 49.9278Z" fill="url(#paint2_linear_7008_21222)"/>
<path d="M215.769 30.1498C216.018 33.2818 218.743 35.6125 221.853 35.3674C224.959 35.1199 227.286 32.3849 227.039 29.2528C226.795 26.1306 224.066 23.8 220.958 24.045C217.848 24.2926 215.523 27.03 215.769 30.1498Z" fill="#E26713"/>
<path d="M217.558 52.7996C217.806 55.9267 220.526 58.2622 223.637 58.0122C226.747 57.7623 229.071 55.0273 228.828 51.9001C228.579 48.7755 225.854 46.4424 222.746 46.6899C219.631 46.9374 217.314 49.67 217.558 52.7996Z" fill="#E26713"/>
<path d="M219.377 22.847C219.311 21.9794 219.953 21.3398 220.811 21.2712C221.66 21.205 222.409 21.7368 222.477 22.5921C222.526 23.2121 222.16 23.4254 221.665 23.7194L222.568 30.0007L220.445 30.1673L220.35 23.842C219.797 23.6337 219.428 23.4719 219.377 22.847Z" fill="#232121"/>
<path d="M219.214 34.5893C219.045 35.6358 219.604 36.594 220.499 36.5156L223.336 36.2901C224.232 36.2215 224.656 35.1898 224.349 34.1776L223.031 29.8643C222.936 29.5506 222.526 29.3325 222.102 29.3668L220.777 29.4722C220.363 29.5041 219.987 29.7835 219.928 30.1143L219.214 34.5893Z" fill="#C14E00"/>
<path d="M222.226 58.9917C222.295 59.8519 223.031 60.3862 223.89 60.32C224.739 60.2514 225.395 59.6044 225.327 58.7442C225.276 58.1242 224.885 57.9722 224.351 57.7664L224.258 51.4141L222.134 51.5807L223.034 57.8521C222.519 58.1462 222.178 58.3668 222.226 58.9917Z" fill="#232121"/>
<path d="M220.224 47.4182C219.892 46.4011 220.292 45.3792 221.192 45.3056L224.027 45.0777C224.922 45.0091 225.505 45.9551 225.361 47.0089L224.736 51.4766C224.688 51.8074 224.317 52.0844 223.897 52.1138L222.573 52.2241C222.153 52.2584 221.738 52.0427 221.633 51.7241L220.224 47.4182Z" fill="#C14E00"/>
<path d="M223.136 35.0396C222.636 34.0789 220.509 34.9979 220.509 34.9979C220.509 34.9979 221.107 42.5977 221.426 46.5629C222.97 46.438 223.956 46.3546 223.956 46.3546L223.136 35.0396Z" fill="#232121"/>
<path d="M263.255 47.2846C260.908 46.6057 254.617 48.1693 251.102 47.015C242.103 44.0594 229.589 39.1261 228.484 38.8149C226.949 38.3884 224.891 36.7146 223.556 36.6484C222.224 36.5774 220.968 36.494 219.761 37.0601C218.548 37.6287 216.665 38.462 217.129 39.4937C217.594 40.5353 217.633 40.3907 218.668 39.9226C219.697 39.4594 219.697 39.4594 219.697 39.4594C219.697 39.4594 218.343 39.9912 217.86 41.2166C217.375 42.4346 218.285 42.3929 219.024 42.4444C219.761 42.5008 220.495 42.0253 220.495 42.0253C220.495 42.0253 218.275 42.3096 218.536 43.4075C218.797 44.4981 220.705 44.1207 220.705 44.1207C220.705 44.1207 218.936 45.2137 219.953 45.6156C220.971 46.0053 222.327 45.5936 223.968 45.3657C225.608 45.1524 227.335 44.6084 228.772 45.123C229.886 45.5201 244.954 53.73 250.736 56.4944C252.417 57.2934 257.815 55.1122 258.632 54.6662C265.157 51.1151 263.255 47.2846 263.255 47.2846Z" fill="#E8C8BA"/>
<path d="M269.246 35.1646C271.148 34.3387 273.415 36.2454 273.6 38.625C274.505 50.288 268.697 51.7511 260.713 56.3046C258.554 57.5349 254 58.3093 251.821 58.6793C252.912 53.2093 251.712 47.629 250.37 46.2811C257.446 44.8229 266.926 38.3922 266.926 38.3922L269.246 35.1646Z" fill="#D8D8D8"/>
<path d="M144.481 60.561L130.157 76.8216L108.93 72.4519V63.6955L142.952 25.1406L144.481 60.561Z" fill="url(#paint3_linear_7008_21222)"/>
<path d="M146.933 44.1106L124.986 74.3526C124.986 74.3526 104.027 73.5341 103.485 70.2525C102.939 66.9686 104.571 53.3008 104.571 53.3008L143.496 42.6328L146.933 44.1106Z" fill="url(#paint4_linear_7008_21222)"/>
<path d="M68.3901 181.518C67.7924 183.912 65.4141 191.384 68.3901 193.178C71.3661 194.972 74.2666 193.698 75.7546 193.698C77.2402 193.698 87.2074 192.056 87.8027 189.664C88.3979 187.274 87.727 183.91 78.7257 184.51C75.5277 183.013 77.0181 181.219 77.0181 181.219L68.3901 181.518Z" fill="#232121"/>
<path d="M84.9047 182.869C84.3071 185.259 81.9287 192.729 84.9047 194.53C87.8808 196.316 90.7763 195.047 92.2668 195.047C93.7524 195.047 103.198 194.976 103.793 192.579C104.388 190.19 104.239 185.261 95.2428 185.859C92.0448 184.362 93.5304 182.57 93.5304 182.57L84.9047 182.869Z" fill="black"/>
<path d="M150.204 29.8517C150.204 32.9812 147.672 35.5227 144.552 35.5227C141.432 35.5227 138.898 32.9812 138.898 29.8517C138.898 26.7147 141.432 24.1758 144.552 24.1758C147.672 24.1758 150.204 26.7147 150.204 29.8517Z" fill="#E26713"/>
<path d="M150.204 52.5524C150.204 55.6917 147.672 58.2307 144.552 58.2307C141.432 58.2307 138.898 55.6917 138.898 52.5524C138.898 49.4179 141.432 46.8789 144.552 46.8789C147.672 46.8789 150.204 49.4179 150.204 52.5524Z" fill="#E26713"/>
<path d="M146.035 22.8513C146.035 21.9837 145.345 21.3906 144.482 21.3906C143.628 21.3906 142.928 21.9837 142.928 22.8513C142.928 23.4664 143.306 23.6453 143.823 23.9026L143.418 30.2378H145.548L145.143 23.9173C145.677 23.6674 146.035 23.4762 146.035 22.8513Z" fill="#232121"/>
<path d="M147.121 34.5326C147.375 35.5717 146.889 36.5667 145.992 36.5667H143.147C142.247 36.5667 141.74 35.5717 141.971 34.5326L142.945 30.1335C143.015 29.8051 143.408 29.5625 143.83 29.5625H145.16C145.574 29.5625 145.974 29.8076 146.055 30.1335L147.121 34.5326Z" fill="#C14E00"/>
<path d="M146.035 59.1033C146.035 59.966 145.345 60.5591 144.482 60.5591C143.628 60.5591 142.928 59.966 142.928 59.1033C142.928 58.4833 143.306 58.3019 143.823 58.0495L143.418 51.707H145.548L145.143 58.0324C145.677 58.2774 146.035 58.4735 146.035 59.1033Z" fill="#232121"/>
<path d="M147.121 47.4081C147.375 46.3714 146.889 45.3789 145.992 45.3789H143.147C142.247 45.3789 141.74 46.3714 141.971 47.4081L142.945 51.8096C143.015 52.138 143.408 52.3806 143.83 52.3806H145.16C145.574 52.3806 145.974 52.1356 146.055 51.8096L147.121 47.4081Z" fill="#C14E00"/>
<path d="M143.242 35.2829C143.669 34.2903 145.857 35.0427 145.857 35.0427C145.857 35.0427 145.857 42.6571 145.857 46.6346C144.304 46.6346 143.316 46.6346 143.316 46.6346L143.242 35.2829Z" fill="#232121"/>
<path d="M138.059 39.8657C139.639 38.7898 141.718 37.6257 142.881 37.2998C144.045 36.9714 146.448 36.545 147.172 37.1307C147.897 37.7017 147.563 38.1992 147.563 38.1992C147.563 38.1992 149.041 39.0937 148.204 40.5862C149.043 41.8802 147.916 42.7502 147.916 42.7502C148.421 43.3531 147.487 43.9241 146.933 44.1177C145.455 44.6275 143.191 44.5809 141.398 44.8235C140.693 44.9118 136.38 48.8035 135.51 49.3329C134.639 49.8573 131.499 42.1939 131.499 42.1939L138.059 39.8657Z" fill="#E8C8BA"/>
<path d="M89.5714 17.9883C89.8154 20.3287 86.9174 28.1 85.4123 31.3619C83.9292 34.6214 80.7385 39.1038 80.7385 39.1038L96.009 45.7648C96.009 45.7648 95.4528 31.7344 99.4729 29.9601C101.968 28.8671 89.5714 17.9883 89.5714 17.9883Z" fill="#DDAC9E"/>
<path d="M99.7486 29.319C100.346 28.8534 99.6022 27.5104 98.5606 26.1061L96.8043 24.9102L91.2937 40.1365L94.2404 42.6338L96.1358 40.2346C96.1358 40.2346 95.7504 32.4143 99.7486 29.319Z" fill="#E8C8BA"/>
<path d="M106.918 16.3808C106.028 25.054 102.215 31.8719 98.7366 32.0753C95.2581 32.2787 87.8643 26.691 87.4545 19.9344C87.035 13.1777 91.3234 6.98718 97.9073 7.58271C105.091 8.2395 107.616 9.65112 106.918 16.3808Z" fill="#E8C8BA"/>
<path d="M108.052 14.2648C107.759 12.0861 102.415 0.329995 92.4474 3.23656C82.4826 6.13822 82.1923 10.4932 82.4826 15.7132C82.7729 20.9406 84.9341 27.0356 86.527 28.3443C88.1102 29.6505 94.5746 30.7288 94.5746 30.7288C94.5746 30.7288 97.9799 23.4159 98.658 22.3964C99.8167 20.6539 102.71 18.7448 102.568 20.921C102.427 23.0948 103.573 22.6831 103.573 22.6831L104.581 22.8301C104.581 22.8301 105.74 17.3135 106.606 16.2965C107.467 15.2819 108.052 14.2648 108.052 14.2648Z" fill="#300901"/>
<path d="M92.9377 37.748C86.0928 37.5985 84.6073 33.2656 84.6073 33.2656C84.6073 33.2656 82.7973 34.1577 80.6189 34.5694C77.6136 35.1355 71.4614 41.9363 73.9155 55.3859C74.2545 57.2436 75.4791 58.9664 76.0743 65.5442C76.6695 72.1268 82.2264 73.3203 82.2264 73.3203L86.3954 69.1345L92.9377 37.748Z" fill="#BFB8B8"/>
<path d="M100.714 55.415C103.459 55.8022 118.671 57.5814 118.671 57.5814C129.838 56.7923 137.786 49.1166 137.786 49.1166C137.786 49.1166 137.895 45.8155 135.146 40.8968C133.382 41.485 123.003 45.4013 119.085 45.2003C115.17 45.0067 107.959 40.2597 105.415 39.6739C102.868 39.0784 96.0137 40.0611 95.6161 45.1807C95.6161 45.1807 93.2694 51.6751 100.714 55.415Z" fill="#D8D8D8"/>
<path d="M105.208 55.1567C102.688 61.9648 99.1848 79.7056 98.8603 82.0412C98.5408 84.3792 86.1146 84.786 85.9438 83.6243C82.2238 57.8427 90.5274 37.6732 92.113 37.6732C94.7963 37.6732 96.7308 36.1758 96.7308 36.1758C96.7308 36.1758 102.532 38.1168 105.654 39.6877C106.913 40.3224 105.208 55.1567 105.208 55.1567Z" fill="#D8D8D8"/>
<path d="M95.6137 51.1211C83.5681 52.9175 73.2252 57.0813 73.7984 59.4781C73.7252 68.5801 74.4229 75.5377 73.5447 78.7286C71.3127 86.8037 69.5856 91.2518 70.1759 101.41C70.7711 111.578 87.776 164.948 88.8762 158.032C89.4787 163.641 86.6856 180.358 88.1078 187.159C88.2444 187.291 94.4184 187.627 94.4184 187.627C97.853 186.963 100.727 172.579 101.266 144.656C102.124 100.339 103.486 84.2059 103.486 84.2059C104.137 65.6662 104.539 61.2156 104.539 56.9563C104.539 56.9563 100.078 58.7478 95.6137 51.1211Z" fill="#4D87DB"/>
<path d="M101.563 37.3789C96.6503 41.7878 96.6503 53.2988 96.6503 53.2988L93.0815 53.0758C93.0815 53.0758 93.8304 40.2928 98.2896 37.3078C99.497 36.4966 101.563 37.3789 101.563 37.3789Z" fill="#4D87DB"/>
<path d="M75.1764 49.0703C75.1764 47.7984 75.5131 37.4759 81.5749 34.3047L78.1695 35.2654C78.1695 35.2654 73.9519 37.5911 73.5445 50.4648C73.4591 53.2145 72.9542 55.6946 73.3957 59.7285C73.6933 70.1932 73.2761 75.1093 72.7273 77.0993C70.4952 85.172 69.6586 91.2645 70.2513 101.423C70.8465 111.591 71.4417 133.711 70.2513 142.08C69.0609 150.445 63.6284 178.545 67.1972 183.922C68.2413 188.703 79.5478 185.194 79.5478 185.194C79.5478 185.194 81.4212 157.841 82.5262 150.935C81.2529 185.939 83.641 187.211 83.641 187.211L89.5151 187.441C96.6527 163.598 96.0745 104.072 96.3575 92.7595C96.6527 81.1038 98.4407 58.3905 99.0359 55.6971L93.1449 51.4769C82.9385 52.6901 77.5206 50.3153 75.1764 49.0703Z" fill="#3357BC"/>
<path d="M502.883 112.125C506.525 112.305 516.583 107.533 516.383 107.073C515.962 106.125 513.82 104.116 511.06 104.687C512.928 103.581 513.853 102.304 514.905 101.971C515.959 101.636 518.976 101.514 518.937 100.483C518.896 99.4578 515.298 97.1133 511.686 99.491C508.075 101.871 500.185 105.604 500.185 105.604L502.883 112.125Z" fill="#C14E00"/>
<path d="M469.028 91.0898C472.791 93.7807 480.522 106.243 486.485 108.521C488.268 109.202 504.525 103.599 504.525 103.599L505.299 114.944C505.299 114.944 488.612 120.894 485.324 120.071C482.046 119.262 459.043 107.617 459.043 107.617L469.028 91.0898Z" fill="#BFB8B8"/>
<path d="M537.707 28.3471L540.195 27.6875L551.094 75.9507L548.606 76.6075L537.707 28.3471Z" fill="#232121"/>
<path d="M825.034 102.411C812.155 96.9992 750.635 87.821 750.635 87.821L692.382 49.4842C638.018 31.7097 578.631 45.4382 568.972 50.4652C564.283 52.9066 542.624 77.6312 531.895 86.9065C531.895 86.9065 511.968 90.1931 509.598 108.597C508.498 117.151 507.451 135.053 504.591 149.209C500.3 170.461 517.467 170.079 517.467 170.079C517.467 170.079 520.686 170.115 526.481 170.184C526.204 168.261 526.055 166.29 526.055 164.278C526.055 143.472 541.668 126.601 560.928 126.601C580.186 126.601 595.798 143.469 595.798 164.278C595.798 166.554 595.604 168.776 595.244 170.946C643.284 170.755 679.516 170.963 730.549 171.334C730.012 168.712 730.01 167.075 730.01 164.278C730.01 143.472 745.625 126.601 764.888 126.601C784.143 126.601 799.761 143.469 799.761 164.278C799.761 167.196 799.443 170.034 798.864 172.761C818.106 172.783 826.309 172.686 828.017 172.401C837.315 170.852 841.786 162.156 843.219 154.427C845.42 127.297 825.034 102.411 825.034 102.411ZM555.362 91.1298C555.362 91.1298 572.191 65.7761 577.469 62.1458C589.122 54.1342 628.974 54.827 628.974 54.827L635.861 91.2545L555.362 91.1298ZM646.413 91.2517C646.413 91.2517 640.678 66.5935 638.236 54.4197C638.097 53.7352 663.967 54.4446 683.643 59.7847C694.485 62.725 700.1 67.9958 706.087 71.9724C731.159 88.6163 731.439 91.0356 731.439 91.0356L646.413 91.2517Z" fill="#BFB8B8"/>
<path d="M531.272 166.238C531.272 148.949 544.24 134.938 560.24 134.938C576.243 134.938 589.212 148.949 589.212 166.238C589.212 183.525 576.243 197.536 560.24 197.536C544.24 197.539 531.272 183.528 531.272 166.238Z" fill="#232121"/>
<path d="M539.936 166.239C539.941 154.123 549.026 144.305 560.243 144.305C571.452 144.305 580.544 154.12 580.544 166.239C580.544 178.349 571.454 188.173 560.243 188.173C549.029 188.173 539.944 178.349 539.936 166.239ZM542.986 166.239C543.001 176.531 550.717 184.861 560.243 184.878C569.772 184.861 577.479 176.531 577.497 166.239C577.482 155.946 569.772 147.616 560.243 147.591C550.714 147.616 543.001 155.946 542.986 166.239Z" fill="#BFB8B8"/>
<path d="M578.344 170.588C570.975 170.117 565.501 168.344 565.501 166.238C565.501 164.126 570.977 162.355 578.346 161.884C577.874 159.609 577.041 157.445 575.887 155.48C570.369 160.776 565.339 163.713 563.96 162.217C562.58 160.726 565.298 155.294 570.2 149.331C569.023 148.524 567.751 147.845 566.381 147.324C565.683 147.061 564.978 146.85 564.272 146.679C563.836 154.64 562.197 160.554 560.243 160.554C558.293 160.554 556.655 154.64 556.216 146.676C554.11 147.186 552.104 148.086 550.288 149.333C555.19 155.294 557.906 160.729 556.524 162.217C555.141 163.713 550.111 160.776 544.594 155.48C543.85 156.749 543.219 158.124 542.74 159.601C542.493 160.36 542.298 161.119 542.139 161.884C549.511 162.355 554.985 164.126 554.985 166.238C554.985 168.344 549.509 170.117 542.134 170.588C542.609 172.864 543.442 175.031 544.594 176.993C550.114 171.697 555.141 168.759 556.521 170.253C557.904 171.744 555.187 177.181 550.283 183.142C551.458 183.948 552.73 184.63 554.1 185.146C554.797 185.412 555.503 185.625 556.211 185.794C556.647 177.832 558.286 171.916 560.238 171.916C562.195 171.916 563.831 177.835 564.267 185.794C566.373 185.287 568.376 184.386 570.19 183.139C565.293 177.178 562.574 171.741 563.954 170.253C565.337 168.762 570.369 171.702 575.887 176.995C576.63 175.726 577.256 174.349 577.744 172.866C577.99 172.115 578.185 171.353 578.344 170.588Z" fill="#BFB8B8"/>
<path d="M735.956 166.238C735.956 148.949 748.924 134.938 764.924 134.938C780.924 134.938 793.901 148.949 793.901 166.238C793.901 183.525 780.924 197.536 764.924 197.536C748.921 197.539 735.956 183.528 735.956 166.238Z" fill="#232121"/>
<path d="M744.625 166.247C744.625 154.134 753.71 144.312 764.924 144.312C776.135 144.312 785.221 154.134 785.221 166.247C785.221 178.357 776.135 188.172 764.924 188.178C753.71 188.172 744.625 178.354 744.625 166.247ZM747.667 166.247C747.682 176.539 755.395 184.866 764.921 184.886C774.453 184.869 782.155 176.542 782.176 166.247C782.155 155.949 774.453 147.621 764.921 147.599C755.395 147.621 747.682 155.949 747.667 166.247Z" fill="#BFB8B8"/>
<path d="M783.023 170.588C775.659 170.117 770.183 168.344 770.183 166.238C770.183 164.126 775.659 162.355 783.028 161.884C782.556 159.609 781.72 157.445 780.571 155.48C775.053 160.776 770.024 163.713 768.641 162.217C767.259 160.726 769.977 155.294 774.879 149.331C773.707 148.524 772.432 147.845 771.062 147.324C770.367 147.061 769.659 146.85 768.956 146.679C768.518 154.64 766.881 160.554 764.927 160.554C762.972 160.554 761.336 154.64 760.9 146.676C758.797 147.186 756.786 148.086 754.975 149.333C759.869 155.294 762.593 160.729 761.21 162.217C759.828 163.713 754.798 160.776 749.283 155.48C748.537 156.749 747.906 158.124 747.424 159.601C747.183 160.36 746.988 161.119 746.829 161.884C754.195 162.355 759.674 164.126 759.674 166.238C759.674 168.344 754.195 170.117 746.823 170.588C747.295 172.864 748.132 175.031 749.283 176.993C754.801 171.697 759.833 168.759 761.21 170.253C762.593 171.744 759.871 177.181 754.97 183.142C756.145 183.948 757.417 184.63 758.789 185.146C759.489 185.412 760.192 185.625 760.897 185.794C761.333 177.832 762.972 171.916 764.924 171.916C766.881 171.916 768.515 177.835 768.954 185.794C771.06 185.287 773.066 184.386 774.879 183.139C769.98 177.178 767.259 171.741 768.641 170.253C770.024 168.762 775.053 171.702 780.571 176.995C781.314 175.726 781.945 174.349 782.428 172.866C782.671 172.115 782.869 171.353 783.023 170.588Z" fill="#BFB8B8"/>
<path d="M516.195 95.5568C519.684 95.8478 518.506 95.6427 522.633 95.8478L529.951 96.1304C534.078 96.3355 534.481 98.231 530.844 100.351L512.507 110.843C508.87 112.965 508.816 112.511 509.375 108.767L510.757 101.689C511.368 98.1673 512.933 95.2852 516.195 95.5568Z" fill="#D8D8D8"/>
<path d="M530.913 145.094H505.42C505.161 146.393 504.889 147.746 504.596 149.203C502.832 157.952 504.699 163.029 507.51 165.978H526.119C526.093 165.409 526.057 164.847 526.057 164.27C526.057 157.268 527.832 150.714 530.913 145.094Z" fill="#D8D8D8"/>
<path d="M734.87 145.094H590.943C594.026 150.714 595.801 157.268 595.801 164.27C595.801 164.847 595.752 165.409 595.734 165.978H730.023C730.015 165.448 730.015 164.891 730.015 164.27C730.01 157.268 731.785 150.714 734.87 145.094Z" fill="#D8D8D8"/>
<path d="M842.932 145.094H794.901C797.984 150.714 799.762 157.268 799.762 164.27C799.762 164.844 799.736 165.412 799.71 165.978H838.362C840.942 162.602 842.483 158.384 843.217 154.419C843.556 151.129 843.412 148.015 842.932 145.094Z" fill="#D8D8D8"/>
<path d="M669.482 102.193C669.482 103.379 668.592 104.338 667.499 104.338H651.612C650.514 104.338 649.627 103.379 649.627 102.193C649.627 101.007 650.517 100.051 651.612 100.051H667.499C668.592 100.051 669.482 101.007 669.482 102.193Z" fill="#D8D8D8"/>
<path d="M739.644 91.8927C739.644 97.5792 734.904 102.193 729.053 102.193C726.142 102.193 725.878 97.5792 725.878 91.8927C725.878 86.2062 726.145 81.5977 729.053 81.5977C734.904 81.5977 739.644 86.2062 739.644 91.8927Z" fill="#D8D8D8"/>
<path d="M832.711 115.703C832.711 115.703 816.934 114.899 810.865 113.128C803.519 110.983 798.751 107.55 803.916 105.837C809.082 104.119 825.362 106.693 825.362 106.693L832.711 115.703Z" fill="#D8D8D8"/>
<path d="M814.71 96.9696L750.637 86.6719C746.662 91.8235 751.694 96.396 751.694 96.396L824.508 102.407L814.71 96.9696Z" fill="#232121"/>
<path d="M745.202 85.6743L797.232 2.85976C797.232 2.85976 805.966 -0.576514 804.378 6.29052C802.793 13.1576 750.368 99.8324 750.368 99.8324L745.202 85.6743Z" fill="#BFB8B8"/>
<path d="M570.257 51.2871C558.032 31.7834 535.066 9.58335 501.654 14.1253C500.931 16.4421 505.179 21.3332 507.167 21.5688C509.583 21.8597 520.058 22.5802 529.969 26.1662C544.361 31.3733 553.544 44.5448 560.102 61.7401C564.086 58.9052 570.257 51.2871 570.257 51.2871Z" fill="#BFB8B8"/>
<path d="M868.605 171.149C867.697 173.907 868.356 176.869 868.712 180.588C869.064 184.307 869.869 187.112 866.412 187.962C862.954 188.805 850.088 188.891 850.088 188.891C850.088 188.891 843.201 187.214 850.378 183.864C855.947 181.262 860.076 177.997 859.597 170.936C859.502 169.55 868.605 171.149 868.605 171.149Z" fill="black"/>
<path d="M851.355 81.8984C851.656 95.6381 852.756 133.911 852.976 135.868C855.031 154.288 857.068 179.669 857.068 179.669L867.553 179.398C867.553 179.398 871.662 147.651 867.874 134.457C866.725 130.45 872.203 91.1598 872.203 91.1598L851.355 81.8984Z" fill="#3357BC"/>
<path d="M878.785 178.317C879.108 181.415 880.667 185.585 879.757 189.836C879.439 191.308 876.941 191.931 874.909 192.455C874.068 192.674 871.144 194.811 869.646 195.415C864.19 197.61 861.577 195.994 860.556 195.34C859.527 194.672 859.214 193.037 861.651 190.546C863.736 188.409 866.722 187.24 867.54 185.231C868.351 183.227 867.927 176.953 867.927 176.953L878.785 178.317Z" fill="#232121"/>
<path d="M852.417 79.5319C852.715 93.2715 855.129 108.862 860.169 136.932C861.841 146.246 866.763 186.381 866.763 186.381L880.337 186.8C880.337 186.8 881.827 160.337 877.457 137.165C876.972 134.593 878.006 111.966 879.232 94.2802C879.96 83.8134 873.881 72.3711 873.881 72.3711L852.417 79.5319Z" fill="#4D87DB"/>
<path d="M876.464 80.5234L852.835 134.445C852.835 134.445 851.247 96.6851 852.04 92.6807C852.835 88.6763 876.464 80.5234 876.464 80.5234Z" fill="url(#paint5_linear_7008_21222)"/>
<path d="M783.002 87.0312C783.861 87.8209 788.147 86.2995 791.074 85.2465C792.287 84.7975 801.901 85.6455 802.362 85.3961C803.114 84.986 799.787 80.1752 799.787 80.1752C799.787 80.1752 794.603 80.7405 790.405 80.2223C787.593 79.8676 785.372 78.3185 784.862 78.4404C783.577 78.7231 778.842 81.001 778.842 81.001L783.002 87.0312Z" fill="#DDAC9E"/>
<path d="M799.856 77.1917C797.507 77.1168 790.202 80.2178 788.914 79.2673C787.624 78.3223 786.329 78.1061 784.172 77.8872C782.351 77.696 781.353 74.631 780.947 75.1686C780.542 75.7173 780.252 75.8116 781.045 77.3136C781.702 78.5523 782.617 79.4723 782.617 79.4723C782.617 79.4723 788.791 81.4759 789.353 81.6089C789.925 81.7447 799.849 80.2233 800.277 80.3203C800.703 80.4146 799.856 77.1917 799.856 77.1917Z" fill="#E8C8BA"/>
<path d="M823.31 54.7148C820.03 57.4223 814.6 71.2672 809.149 73.4399C804.073 75.4628 791.474 79.0183 791.474 79.0183L796.042 87.1712C796.042 87.1712 802.062 86.8525 805.912 86.2206C809.759 85.586 813.671 84.4332 817.172 82.3936C819.909 80.7946 832.416 69.8318 832.105 65.9632C831.803 62.1057 823.31 54.7148 823.31 54.7148Z" fill="#4D87DB"/>
<path d="M827.386 47.8131C827.386 47.8131 827.386 47.8131 823.577 47.2866C820.918 46.9208 819.084 45.5823 817.532 44.2494C816.295 40.5055 813.484 36.1214 807.646 31.5989C799.149 25.0034 790.287 38.9453 792.077 46.2946C791.993 47.0095 791.698 48.323 791.798 48.614C792.921 51.884 796.045 53.4498 799.467 56.1101C799.528 56.1628 799.592 56.2154 799.659 56.2708C800.09 57.1909 801.591 59.1003 802.016 60.5496C802.093 60.6632 802.188 60.7269 802.286 60.774C802.873 61.2258 803.827 60.2586 804.838 59.5298C804.928 59.5797 805.007 59.6074 805.094 59.6545C807.292 60.8073 809.121 61.4918 810.447 61.1205C810.617 61.0983 810.812 61.1066 810.973 61.0567C812.705 60.5441 813.084 60.1395 814.705 58.0666C817.327 59.1391 823.888 62.8885 823.888 62.8885L824.593 56.8833L824.247 56.8611L827.386 47.8131Z" fill="#DDAC9E"/>
<path d="M802.678 28.4588C800.328 28.1955 797.522 28.2121 794.334 32.549C791.238 36.753 789.725 39.9953 790.341 45.0305C790.635 47.5994 792.905 48.1371 792.905 48.1371C792.905 48.1371 793.578 44.3821 794.578 43.6062C795.576 42.8247 795.742 45.7039 798.464 45.8841C800.752 46.0365 803.883 46.2859 803.883 46.2859C803.883 46.2859 808.524 43.2819 809.878 44.3239C811.227 45.3825 817.398 43.8361 817.398 43.8361C817.398 43.8361 817.216 39.2055 813.397 34.0926C807.731 26.5023 803.237 28.5336 802.678 28.4588Z" fill="#300901"/>
<path d="M806.107 45.6587C806.205 44.4643 805.833 41.7319 807.241 41.754C808.652 41.815 811.46 44.6693 811.004 47.2881C810.557 49.8847 806.107 45.6587 806.107 45.6587Z" fill="#DDAC9E"/>
<path d="M786.506 53.5078C784.659 55.8328 785.844 57.648 788.491 57.623C791.13 57.5898 791.328 56.1737 792.495 54.1729C794.319 51.047 795.406 48.043 795.406 48.043L786.506 53.5078Z" fill="#4D87DB"/>
<path d="M815.757 36.7052C814.005 37.5172 802.45 40.3216 802.45 40.3216C802.45 40.3216 799.474 48.4302 796.833 50.1123C794.191 51.7944 787.986 50.6915 785.721 54.9758C788.055 49.3114 789.697 47.2441 789.697 47.2441C789.697 47.2441 787.358 42.1368 790.271 35.1755C791.528 32.1799 795.081 28.5607 797.161 27.9482C799.236 27.333 803.95 25.0385 808.388 28.2475C812.825 31.4593 815.757 36.7052 815.757 36.7052Z" fill="#3357BC"/>
<path d="M808.441 28.3119C812.884 31.5238 815.808 36.7641 815.808 36.7641C814.341 37.4486 805.961 39.5353 803.319 40.1838C802.409 35.7388 799.828 30.1354 796.699 28.2343C796.873 28.154 797.055 28.0598 797.212 28.0127C799.29 27.4003 804.007 25.1057 808.441 28.3119Z" fill="#4D87DB"/>
<path d="M816.559 59.0664L815.903 62.2117L820.802 66.629L822.405 60.6155L816.559 59.0664Z" fill="#4D87DB"/>
<path d="M821.679 47.5849C828.063 46.5596 836.787 45.925 848.467 53.4959C860.382 61.222 876.402 68.2276 876.931 80.6703C877.105 84.7634 863.029 94.6898 854.426 95.2635C850.896 95.4935 845.923 90.1312 842.247 86.1074C838.567 82.0781 824.77 75.6655 820.138 63.5083C818.234 58.509 821.679 47.5849 821.679 47.5849Z" fill="#4D87DB"/>
<path d="M820.204 46.1914C820.194 48.5608 817.619 61.6519 817.619 61.6519L824.642 66.956L825.419 46.5267L820.204 46.1914Z" fill="#3357BC"/>
<path d="M776.066 70.5573L777.402 69.6289L795.452 99.9043L794.113 100.833L776.066 70.5573Z" fill="#232121"/>
<path d="M773.25 68.7814C773.227 68.6512 773.217 68.5182 773.217 68.3796C773.217 67.0744 774.096 65.9354 775.325 65.7387C775.448 65.722 775.571 65.7109 775.697 65.7109C776.902 65.7109 777.951 66.6615 778.141 67.9889L777.79 68.0471L778.141 67.9944C778.157 68.1274 778.162 68.2577 778.167 68.3851C778.162 69.6904 777.282 70.8238 776.059 71.0289C775.93 71.0455 775.81 71.051 775.692 71.051C774.479 71.0538 773.419 70.0978 773.25 68.7814ZM775.433 66.4979C774.55 66.6393 773.922 67.454 773.922 68.3824C773.922 68.4683 773.932 68.5653 773.948 68.6678C774.071 69.6128 774.827 70.2945 775.692 70.2945C775.781 70.2945 775.866 70.289 775.953 70.2779C776.828 70.1366 777.459 69.3163 777.459 68.3879C777.459 68.2909 777.454 68.1967 777.444 68.108C777.305 67.1575 776.551 66.4758 775.697 66.4758C775.612 66.473 775.522 66.4786 775.433 66.4979Z" fill="#232121"/>
<path d="M778.832 80.6687C778.08 81.683 778.236 82.9495 779.293 82.8885C778.944 83.8445 779.806 85.4214 780.748 85.1747C780.363 85.959 781.227 86.8485 782.138 86.7487C782.415 87.5441 782.923 87.7325 783.728 87.4609C784.844 87.1035 786.968 86.4273 786.965 85.4352C786.965 84.4126 783.938 85.8398 783.938 85.8398C783.938 85.8398 786.137 85.1165 786.36 84.0496C786.36 84.0496 786.803 83.0575 785.962 83.1739C785.121 83.2848 782.363 83.9166 782.363 83.9166C782.363 83.9166 785.667 82.5587 785.595 82.1486C785.475 81.4031 785.431 80.7436 780.884 82.2705C783.7 81.198 784.251 80.799 784.059 79.951C783.861 79.103 778.832 80.6687 778.832 80.6687Z" fill="#E8C8BA"/>
<path d="M842.376 86.1116C846.054 90.1354 851.03 95.4977 854.557 95.2676C857.309 95.082 863.908 92.2914 867.13 90.6868C867.268 89.8056 866.322 87.0067 866.073 86.2529C861.967 73.9543 834.963 61.5089 829.138 58.0781L820.65 64.3771C825.596 75.9662 838.785 82.182 842.376 86.1116Z" fill="#3357BC"/>
<path d="M783.825 98.0554C784.156 97.4485 789.466 95.7443 789.75 95.5863C789.984 95.4616 791.892 94.4363 793.37 93.5273C791.728 93.1255 789.327 92.2692 790.058 91.8119C792.108 91.496 795.786 92.186 796.866 92.3994L805.348 92.4659C801.962 96.9774 806.11 95.9659 803.273 98.0859C802.706 98.5099 793.895 100.921 793.087 101.046C792.282 101.17 787.367 102.348 786.875 101.536C786.685 101.223 789.381 100.741 790.487 100.558C789.089 100.774 784.98 101.373 785.126 100.774C785.277 100.131 790.297 98.9007 790.297 98.9007C790.297 98.9007 786.747 99.7597 785.418 99.8013C783.83 99.8567 783.815 99.3053 784.862 99.0448C785.723 98.8369 789.868 97.4569 789.868 97.4569C789.868 97.4569 787.993 97.9557 786.175 98.3631C784.166 98.8148 783.494 98.6623 783.825 98.0554Z" fill="#E8C8BA"/>
<path d="M833.932 51.7351C833.932 51.7351 835.779 56.1274 835.263 59.8297C833.97 69.1521 828.807 83.7397 825.234 87.176C818.673 93.4749 810.537 96.3985 804.381 98.1167C801.031 99.0533 798.341 91.2801 798.341 91.2801C798.341 91.2801 815.569 78.2887 816.695 76.2325C819.873 70.4407 821.861 55.1935 823.58 52.4584C825.611 49.2299 830.326 47.7917 833.932 51.7351Z" fill="#3357BC"/>
<path d="M469.836 96.5C473.201 93.7981 477.367 89.1398 477.367 89.1398L472.201 81.6797C472.201 81.6797 461.182 88.7407 460.005 89.8492C458.825 90.9549 469.836 96.5 469.836 96.5Z" fill="#DDAC9E"/>
<path d="M487.024 67.3967C484.033 60.5712 467.923 57.2929 466.376 68.6742C463.555 89.3945 475.526 92.1379 475.526 92.1379C479.555 92.0382 480.568 92.5176 483.479 91.2844C484.9 90.6858 486.126 88.4245 486.993 85.4566C488.26 85.1573 489.605 84.6585 489.458 83.683C488.809 82.3667 488.355 81.2665 488.035 80.3104C488.635 75.6576 488.425 70.5946 487.024 67.3967Z" fill="#E8C8BA"/>
<path d="M478.403 62.2351C473.066 61.0684 467.069 62.0383 466.161 68.7086C463.339 89.4289 475.31 92.1779 475.31 92.1779C475.772 92.1668 479.693 92.1419 480.078 92.1391C472.494 87.1177 476.462 70.4295 478.403 62.2351Z" fill="#DDAC9E"/>
<path d="M467.733 62.6972C469.164 60.7047 472.65 58.3852 477.69 58.9117C482.584 59.4327 484.185 60.6798 487.091 64.5927C488.573 66.5935 488.163 70.5147 488.163 70.5147C488.163 70.5147 486.326 69.9356 485.123 70.1656C483.923 70.3956 482.405 69.5171 480.65 71.7257C479.175 73.5824 478.616 75.8521 478.616 75.8521C478.616 75.8521 473.458 77.343 473.217 79.1055C472.976 80.8596 467.056 85.2492 467.056 85.2492C467.056 85.2492 463.878 79.1387 463.326 75.054C462.036 65.5099 467.4 63.1627 467.733 62.6972Z" fill="#300901"/>
<path d="M475.915 76.8929C475.189 76.0089 474.651 74.6621 473.558 75.5905C472.465 76.5105 470.834 81.4959 472.624 83.2723C474.407 85.0486 475.915 76.8929 475.915 76.8929Z" fill="#DDAC9E"/>
<path d="M480.753 71.705C482.502 69.4964 484.031 70.3776 485.228 70.1476C486.424 69.9176 488.268 70.4968 488.268 70.4968C488.268 70.4968 488.678 66.5727 487.198 64.5747C484.292 60.6562 483.312 59.6087 478.416 59.0933C476.441 58.8882 476.313 67.8835 477.772 76.0808C479.157 75.4351 478.721 75.8341 478.721 75.8341C478.721 75.8341 479.278 73.5562 480.753 71.705Z" fill="#662619"/>
<path d="M404.304 168.122C405.448 165.354 418.804 163.409 435.158 163.711C450.925 164.013 463.965 166.304 465.991 168.99C467.033 169.752 467.748 171.101 467.774 172.634L467.966 184.6C467.997 186.628 467.215 188.022 465.232 188.923C461.459 190.963 449.619 193.019 435.861 192.758C422.1 192.501 410.252 189.477 406.069 187.568C404.579 186.919 403.227 185.412 403.193 183.375L403.001 171.409C402.973 170.057 403.496 168.882 404.304 168.122Z" fill="black"/>
<path d="M406.069 187.562C404.579 186.914 403.227 185.406 403.194 183.369L403.001 171.403C402.976 170.057 403.496 168.882 404.307 168.122C405.451 165.354 418.807 163.409 435.161 163.711C435.392 163.716 435.628 163.727 435.861 163.733L436.333 192.767C436.177 192.764 436.02 192.764 435.864 192.758C422.1 192.498 410.253 189.474 406.069 187.562Z" fill="#232121"/>
<path d="M407.97 169.088C408.003 171.141 420.286 173.034 435.407 173.322C450.53 173.608 462.752 172.178 462.724 170.124C462.688 168.071 450.404 166.173 435.286 165.887C420.163 165.605 407.936 167.034 407.97 169.088Z" fill="black"/>
<path d="M413.487 169.49C413.51 170.903 423.316 172.236 435.397 172.463C447.462 172.682 457.232 171.729 457.212 170.318C457.191 168.911 447.383 167.578 435.304 167.35C423.234 167.12 413.469 168.082 413.487 169.49Z" fill="#BFB8B8"/>
<path d="M404.868 147.324C406.012 144.556 419.368 142.608 435.722 142.91C451.489 143.212 464.529 145.504 466.555 148.189C467.599 148.951 468.312 150.301 468.338 151.83L468.53 163.799C468.561 165.828 467.776 167.222 465.799 168.122C462.023 170.159 450.183 172.218 436.425 171.958C422.667 171.7 410.816 168.676 406.636 166.767C405.143 166.119 403.794 164.611 403.758 162.571L403.565 150.605C403.537 149.259 404.058 148.084 404.868 147.324Z" fill="black"/>
<path d="M406.633 166.767C405.14 166.119 403.791 164.611 403.755 162.571L403.563 150.605C403.537 149.261 404.058 148.086 404.866 147.324C406.01 144.556 419.365 142.608 435.72 142.91C435.95 142.915 436.186 142.929 436.42 142.932L436.892 171.966C436.733 171.963 436.576 171.963 436.42 171.957C422.664 171.703 410.814 168.679 406.633 166.767Z" fill="#232121"/>
<path d="M408.531 148.29C408.564 150.344 420.848 152.237 435.968 152.525C451.091 152.81 463.316 151.378 463.288 149.327C463.249 147.276 450.968 145.378 435.85 145.09C420.727 144.81 408.497 146.24 408.531 148.29Z" fill="black"/>
<path d="M414.051 148.702C414.072 150.118 423.88 151.448 435.958 151.675C448.029 151.897 457.796 150.941 457.776 149.533C457.753 148.123 447.944 146.793 435.866 146.565C423.798 146.335 414.033 147.294 414.051 148.702Z" fill="#BFB8B8"/>
<path d="M465.194 179.974C464.724 184.766 464.745 190.826 467.933 190.566C471.116 190.311 472.16 188.055 476.6 188.568C481.037 189.072 493.962 190.616 493.724 187.182C493.485 183.738 491.431 182.51 489.114 182.369C483.52 182.019 478.398 173.074 476.379 173.875C473.65 174.958 465.194 179.974 465.194 179.974Z" fill="black"/>
<path d="M456.311 182.678C455.185 187.342 453.713 192.954 456.901 193.211C460.084 193.469 460.613 192.738 464.935 193.954C469.254 195.165 479.845 196.293 480.768 194.001C482.043 190.834 479.145 189.013 476.872 188.498C471.388 187.256 467.271 178.854 465.166 179.319C462.318 179.957 456.311 182.678 456.311 182.678Z" fill="#232121"/>
<path d="M456.232 130.543C469.057 134.353 486.242 136.415 490.002 141.398C493.316 145.785 492.354 149.711 489.361 160.796C486.811 170.235 486.157 172.111 485.3 179.502C484.798 183.853 468.177 182.029 466.807 180.574C461.069 174.489 473.407 154.17 476.315 149.032C478.283 145.56 454.157 146.031 450.668 147.869L456.232 130.543Z" fill="#3357BC"/>
<path d="M464.409 86.2031C460.194 87.9878 440.842 93.8239 437.515 136.473C437.515 136.473 464.286 120.128 467.777 119.458C468.231 114.018 472.206 112.665 470.318 98.4297C469.433 91.7899 464.409 86.2031 464.409 86.2031Z" fill="#D8D8D8"/>
<path d="M444.205 113.92C444.348 109.469 451.82 96.8021 456.711 92.7922C464.216 86.6457 469.934 93.5349 470.767 101.336C471.942 112.362 470.018 116.519 470.018 116.519L468.174 117.733C468.174 117.733 474.053 99.5013 466.135 93.7178C463.444 91.753 454.275 91.2902 447.844 111.34C445.974 117.179 444.205 113.92 444.205 113.92Z" fill="#4D87DB"/>
<path d="M446.292 100.406C444.915 103.383 431.062 133.655 431.062 141.467C431.062 149.279 437.79 152.854 446.398 152.483C455.006 152.111 468.092 151.673 468.092 151.673C468.092 151.673 461.146 164.72 455.588 176.961C453.254 182.101 455.801 185.044 455.801 185.044L473.327 184.811C473.327 184.811 478.993 174.189 484.764 154.791C487.632 145.156 486.296 140.148 478.031 138.164C469.521 136.121 460.077 133.661 460.077 133.661L470.082 116.172C470.082 116.172 453.9 120.262 452.523 105.012L449.424 102.778L446.292 100.406Z" fill="#4D87DB"/>
<path d="M470.085 116.174C470.085 116.174 458.522 119.059 454.126 110.715C448.663 120.905 448.144 132.067 449.819 132.973C451.215 133.727 457.868 134.486 463.073 134.242C460.851 133.192 462.511 131.302 462.511 131.302L470.085 116.174Z" fill="#3357BC"/>
<path d="M457.514 94.6953L440.629 113.459C440.629 113.459 430.154 138.863 431.01 142.327C431.864 145.791 473.063 113.747 473.063 113.747L457.514 94.6953Z" fill="url(#paint6_linear_7008_21222)"/>
<path d="M507.351 111.232C508.613 110.118 513.733 103.688 514.677 103.855C515.626 104.013 515.139 105.279 514.541 106.717C513.943 108.153 514.461 107.726 514.461 107.726C514.461 107.726 517.029 107.116 521.043 107.369C523.08 107.496 524.516 109.286 521.279 109.541C522.908 109.91 524.236 111.437 521.779 112.107C523.177 112.551 523.649 113.925 521.589 114.521C522.431 114.665 522.78 115.596 521.751 116.447C521.11 116.979 518.865 118.778 514.664 118.761C510.46 118.744 507.521 118.944 507.521 118.944L507.351 111.232Z" fill="#E26713"/>
<path d="M514.666 118.759C518.868 118.778 521.112 116.977 521.753 116.445C522.782 115.591 522.433 114.663 521.592 114.519C523.192 114.056 523.256 113.13 522.549 112.523C518.175 114.535 511.973 115.134 507.431 114.643L507.526 118.942C507.526 118.942 510.462 118.742 514.666 118.759Z" fill="#C14E00"/>
<path d="M454.949 99.2022C454.736 104.745 457.514 108.209 457.514 108.209C461.928 112.426 473.643 118.529 480.335 121.266C487.026 123.999 509.88 120.69 509.88 120.69L507.344 110.592C507.344 110.592 487.109 107.832 481.581 104.711C476.054 101.585 470.747 95.0426 467.292 93.4852C460.884 90.5921 455.116 94.8597 454.949 99.2022Z" fill="#D8D8D8"/>
</g>
<path d="M921 194H0V196H921V194Z" fill="black" mask="url(#path-1-outside-1_7008_21222)"/>
<defs>
<linearGradient id="paint0_linear_7008_21222" x1="200.167" y1="17.6706" x2="212.265" y2="-5.3176" gradientUnits="userSpaceOnUse">
<stop stop-color="white"/>
<stop offset="0.1264" stop-color="#FAFAFA"/>
<stop offset="0.2666" stop-color="#EDEDED"/>
<stop offset="0.4134" stop-color="#D7D7D7"/>
<stop offset="0.5648" stop-color="#B8B8B8"/>
<stop offset="0.7181" stop-color="#909090"/>
<stop offset="0.8626" stop-color="#646464"/>
</linearGradient>
<linearGradient id="paint1_linear_7008_21222" x1="200.999" y1="67.4754" x2="240.942" y2="22.8147" gradientUnits="userSpaceOnUse">
<stop stop-color="white"/>
<stop offset="0.1264" stop-color="#FAFAFA"/>
<stop offset="0.2666" stop-color="#EDEDED"/>
<stop offset="0.4134" stop-color="#D7D7D7"/>
<stop offset="0.5648" stop-color="#B8B8B8"/>
<stop offset="0.7181" stop-color="#909090"/>
<stop offset="0.8626" stop-color="#646464"/>
</linearGradient>
<linearGradient id="paint2_linear_7008_21222" x1="251.902" y1="74.1547" x2="281.062" y2="41.5506" gradientUnits="userSpaceOnUse">
<stop stop-color="white"/>
<stop offset="0.0829" stop-color="#F8F8F8"/>
<stop offset="0.1997" stop-color="#E6E6E6"/>
<stop offset="0.3368" stop-color="#C8C8C8"/>
<stop offset="0.4892" stop-color="#9E9E9E"/>
<stop offset="0.6526" stop-color="#686868"/>
<stop offset="0.6648" stop-color="#646464"/>
</linearGradient>
<linearGradient id="paint3_linear_7008_21222" x1="125.238" y1="63.7524" x2="164.556" y2="19.7912" gradientUnits="userSpaceOnUse">
<stop offset="0.2418" stop-color="white"/>
<stop offset="0.3027" stop-color="#F8F8F8"/>
<stop offset="0.3887" stop-color="#E6E6E6"/>
<stop offset="0.4895" stop-color="#C8C8C8"/>
<stop offset="0.6016" stop-color="#9E9E9E"/>
<stop offset="0.7217" stop-color="#686868"/>
<stop offset="0.7308" stop-color="#646464"/>
</linearGradient>
<linearGradient id="paint4_linear_7008_21222" x1="125.848" y1="82.0849" x2="124.474" y2="31.7732" gradientUnits="userSpaceOnUse">
<stop stop-color="white"/>
<stop offset="0.0829" stop-color="#F8F8F8"/>
<stop offset="0.1997" stop-color="#E6E6E6"/>
<stop offset="0.3368" stop-color="#C8C8C8"/>
<stop offset="0.4892" stop-color="#9E9E9E"/>
<stop offset="0.6526" stop-color="#686868"/>
<stop offset="0.6648" stop-color="#646464"/>
</linearGradient>
<linearGradient id="paint5_linear_7008_21222" x1="855.869" y1="155.805" x2="872.036" y2="41.3923" gradientUnits="userSpaceOnUse">
<stop offset="0.1209" stop-color="white"/>
<stop offset="0.2303" stop-color="#FBFBFB"/>
<stop offset="0.3447" stop-color="#EEEEEE"/>
<stop offset="0.4614" stop-color="#D9D9D9"/>
<stop offset="0.5797" stop-color="#BCBCBC"/>
<stop offset="0.6992" stop-color="#969696"/>
<stop offset="0.8182" stop-color="#696969"/>
<stop offset="0.8297" stop-color="#646464"/>
</linearGradient>
<linearGradient id="paint6_linear_7008_21222" x1="434.861" y1="136.152" x2="490.778" y2="85.8803" gradientUnits="userSpaceOnUse">
<stop offset="0.1209" stop-color="white"/>
<stop offset="0.1972" stop-color="#FBFBFB"/>
<stop offset="0.277" stop-color="#EEEEEE"/>
<stop offset="0.3585" stop-color="#D9D9D9"/>
<stop offset="0.441" stop-color="#BCBCBC"/>
<stop offset="0.5244" stop-color="#969696"/>
<stop offset="0.6074" stop-color="#696969"/>
<stop offset="0.6154" stop-color="#646464"/>
</linearGradient>
<clipPath id="clip0_7008_21222">
<path d="M0 0H921V195H0V0Z" fill="white"/>
</clipPath>
</defs>
</svg>
