<svg width="40" height="40" viewBox="0 0 40 40" fill="none" xmlns="http://www.w3.org/2000/svg">
<path d="M34.9128 13.8421C34.8959 12.5798 34.6596 11.33 34.2144 10.1488C33.8283 9.15234 33.2387 8.24741 32.483 7.4918C31.7274 6.73619 30.8225 6.1465 29.8261 5.76042C28.66 5.32268 27.4281 5.08599 26.1828 5.06042C24.5794 4.98875 24.0711 4.96875 20.0011 4.96875C15.9311 4.96875 15.4094 4.96875 13.8178 5.06042C12.573 5.08617 11.3417 5.32286 10.1761 5.76042C9.17952 6.14623 8.27446 6.73582 7.51882 7.49147C6.76317 8.24712 6.17358 9.15218 5.78776 10.1488C5.34915 11.314 5.11297 12.5456 5.08943 13.7904C5.01776 15.3954 4.99609 15.9038 4.99609 19.9738C4.99609 24.0438 4.99609 24.5638 5.08943 26.1571C5.11443 27.4038 5.34943 28.6338 5.78776 29.8021C6.17422 30.7984 6.76425 31.703 7.52015 32.4584C8.27605 33.2137 9.1812 33.803 10.1778 34.1888C11.3401 34.6441 12.5717 34.8977 13.8194 34.9387C15.4244 35.0104 15.9328 35.0321 20.0028 35.0321C24.0728 35.0321 24.5944 35.0321 26.1861 34.9387C27.4313 34.9142 28.6634 34.6781 29.8294 34.2404C30.8256 33.8539 31.7303 33.264 32.4858 32.5085C33.2414 31.7529 33.8312 30.8482 34.2178 29.8521C34.6561 28.6854 34.8911 27.4554 34.9161 26.2071C34.9878 24.6038 35.0094 24.0954 35.0094 20.0238C35.0061 15.9538 35.0061 15.4371 34.9128 13.8421V13.8421ZM19.9911 27.6704C15.7344 27.6704 12.2861 24.2221 12.2861 19.9654C12.2861 15.7088 15.7344 12.2604 19.9911 12.2604C22.0346 12.2604 23.9944 13.0722 25.4394 14.5172C26.8843 15.9621 27.6961 17.9219 27.6961 19.9654C27.6961 22.0089 26.8843 23.9687 25.4394 25.4137C23.9944 26.8586 22.0346 27.6704 19.9911 27.6704V27.6704ZM28.0028 13.7721C27.7668 13.7723 27.533 13.726 27.3149 13.6358C27.0969 13.5456 26.8987 13.4132 26.7318 13.2463C26.565 13.0795 26.4326 12.8813 26.3424 12.6632C26.2522 12.4452 26.2059 12.2114 26.2061 11.9754C26.2061 11.7396 26.2525 11.5061 26.3428 11.2882C26.433 11.0703 26.5653 10.8723 26.7321 10.7056C26.8988 10.5388 27.0968 10.4065 27.3147 10.3163C27.5326 10.226 27.7661 10.1796 28.0019 10.1796C28.2378 10.1796 28.4713 10.226 28.6892 10.3163C28.907 10.4065 29.105 10.5388 29.2718 10.7056C29.4385 10.8723 29.5708 11.0703 29.6611 11.2882C29.7513 11.5061 29.7978 11.7396 29.7978 11.9754C29.7978 12.9688 28.9944 13.7721 28.0028 13.7721Z" fill="#090909"/>
<path d="M19.9894 24.9709C22.7536 24.9709 24.9944 22.7301 24.9944 19.9659C24.9944 17.2018 22.7536 14.9609 19.9894 14.9609C17.2252 14.9609 14.9844 17.2018 14.9844 19.9659C14.9844 22.7301 17.2252 24.9709 19.9894 24.9709Z" fill="#090909"/>
</svg>
