<svg width="10" height="12" viewBox="0 0 10 12" fill="none" xmlns="http://www.w3.org/2000/svg">
<path d="M9.18182 5.09091C9.18182 8.27273 5.09091 11 5.09091 11C5.09091 11 1 8.27273 1 5.09091C1 4.00593 1.43101 2.96539 2.1982 2.1982C2.96539 1.43101 4.00593 1 5.09091 1C6.17589 1 7.21642 1.43101 7.98362 2.1982C8.75081 2.96539 9.18182 4.00593 9.18182 5.09091Z" stroke="black" stroke-linecap="round" stroke-linejoin="round"/>
<path d="M5.0902 6.45384C5.84331 6.45384 6.45384 5.84331 6.45384 5.0902C6.45384 4.33708 5.84331 3.72656 5.0902 3.72656C4.33708 3.72656 3.72656 4.33708 3.72656 5.0902C3.72656 5.84331 4.33708 6.45384 5.0902 6.45384Z" stroke="black" stroke-linecap="round" stroke-linejoin="round"/>
</svg>
