<svg width="289" height="284" viewBox="0 0 289 284" fill="none" xmlns="http://www.w3.org/2000/svg">
<ellipse cx="144.5" cy="142" rx="144.5" ry="142" fill="url(#paint0_linear_7107_17645)"/>
<path d="M91.2169 89.5794C90.5727 89.6002 89.8765 89.8398 89.3881 90.3294L86.7281 92.996C85.7618 93.9647 85.6891 95.5168 86.5619 96.5793L123.22 141.162V148.245H149.82V140.245C149.82 139.464 149.498 138.756 148.906 138.245L93.0456 90.246C92.5157 89.7981 91.8611 89.5585 91.2169 89.5794ZM88.64 107.496V129.579C88.64 131.048 89.8349 132.246 91.3 132.246C92.7651 132.246 93.96 133.443 93.96 134.912C93.96 136.381 92.7651 137.579 91.3 137.579C89.8349 137.579 88.64 136.381 88.64 134.912H83.32C83.32 139.318 86.9048 142.912 91.3 142.912C95.6952 142.912 99.28 139.318 99.28 134.912C99.28 131.433 97.0564 128.433 93.96 127.329V113.996L88.64 107.496ZM163.12 113.579C158.725 113.579 155.14 117.173 155.14 121.579V180.245H166.029C167.307 187.797 173.843 193.578 181.74 193.578C189.637 193.578 196.183 187.797 197.451 180.245H203.02C207.415 180.245 211 176.651 211 172.245V146.579C211 141.214 207.145 135.735 206.678 135.079L195.622 120.246C193.087 117.183 189.117 113.579 184.4 113.579H163.12ZM179.08 129.579H195.954L202.438 138.245C203.249 139.381 205.192 142.652 205.597 145.579H179.08C177.885 145.579 176.42 144.11 176.42 142.912V132.246C176.42 130.766 177.875 129.579 179.08 129.579ZM78 153.579V172.245C78 176.651 81.5848 180.245 85.98 180.245H96.8694C98.1474 187.797 104.683 193.578 112.58 193.578C120.477 193.578 127.013 187.797 128.291 180.245H149.82V153.579H78ZM112.58 166.912C118.451 166.912 123.22 171.693 123.22 177.578C123.22 183.464 118.451 188.245 112.58 188.245C106.709 188.245 101.94 183.464 101.94 177.578C101.94 171.693 106.709 166.912 112.58 166.912ZM181.74 166.912C187.611 166.912 192.38 171.693 192.38 177.578C192.38 183.464 187.611 188.245 181.74 188.245C175.869 188.245 171.1 183.464 171.1 177.578C171.1 171.693 175.869 166.912 181.74 166.912Z" fill="white"/>
<defs>
<linearGradient id="paint0_linear_7107_17645" x1="-3.60431" y1="121.944" x2="295.226" y2="121.944" gradientUnits="userSpaceOnUse">
<stop stop-color="#47A7ED"/>
<stop offset="1" stop-color="#2E77B8"/>
</linearGradient>
</defs>
</svg>
