<svg width="734" height="400" viewBox="0 0 734 400" fill="none" xmlns="http://www.w3.org/2000/svg">
<path d="M500.333 0L600.333 133.333H667C704 133.333 733.667 163 733.667 200V300H667C667 355.333 622.333 400 567 400C511.667 400 467 355.333 467 300H267C267 355.333 222.333 400 167 400C111.667 400 66.9999 355.333 66.9999 300H0.333252V200C0.333252 163 29.9999 133.333 66.9999 133.333L167 0H500.333ZM317 50H192L129 133.333H317V50ZM367 50V133.333H538.333L475.333 50H367ZM167 250C139.333 250 117 272.333 117 300C117 327.667 139.333 350 167 350C194.667 350 217 327.667 217 300C217 272.333 194.667 250 167 250ZM567 250C539.333 250 517 272.333 517 300C517 327.667 539.333 350 567 350C594.667 350 617 327.667 617 300C617 272.333 594.667 250 567 250Z" fill="#307ABB"/>
</svg>
