<svg width="800" height="592" viewBox="0 0 800 592" fill="none" xmlns="http://www.w3.org/2000/svg">
<path d="M45.5 0C20.375 0 0 20.4375 0 45.5V464C0 489.062 22.875 512 48 512H113.5C121.125 557.375 160.5 592 208 592C255.5 592 294.875 557.375 302.5 512H450.5C475.562 512 496 491.562 496 466.5V46.5C496 20.875 475.812 0 451 0H45.5ZM528 112V512C535.688 557.312 576.5 592 624 592C671.5 592 710.875 557.312 718.5 512H752C777.125 512 800 489.125 800 464V310C800 277.812 776.812 244.938 774 241L707.5 152C692.25 133.625 668.312 112 640 112H528ZM608 192H697.5L748.5 260C753.938 267.688 768 291.25 768 310V320H608C592 320 576 304 576 288V224C576 206.312 592 192 608 192ZM208 432C243.312 432 272 460.688 272 496C272 531.312 243.312 560 208 560C172.688 560 144 531.312 144 496C144 460.688 172.688 432 208 432ZM624 432C659.312 432 688 460.688 688 496C688 531.312 659.312 560 624 560C588.688 560 560 531.312 560 496C560 460.688 588.688 432 624 432Z" fill="#307ABB"/>
</svg>
