<svg width="800" height="698" viewBox="0 0 800 698" fill="none" xmlns="http://www.w3.org/2000/svg">
<path d="M513.501 218.288H537.849C544.373 218.288 549.677 223.595 549.677 230.119V255.899C549.677 268.146 554.442 279.659 563.094 288.31C571.744 296.96 583.25 301.725 595.493 301.725C595.497 301.725 595.504 301.725 595.504 301.725C603.222 301.725 609.502 308.007 609.502 315.727V352.325C609.502 369.137 623.182 382.817 639.996 382.817C656.807 382.817 670.484 369.139 670.484 352.327V346.397C670.484 335.885 679.039 327.332 689.553 327.332C732.767 327.332 767.921 292.176 767.921 248.964V217.315C767.921 198.56 752.663 183.303 733.909 183.303C724.448 183.303 716.751 175.607 716.751 166.147V133.883C716.751 105.252 693.456 81.9601 664.826 81.958C648.521 81.9559 635.256 68.6888 635.256 52.3861C635.256 23.6484 611.872 0.265625 583.13 0.265625C554.394 0.265625 531.018 23.6463 531.018 52.3861V143.847C531.018 152.907 523.645 160.276 514.582 160.276C500.346 160.276 488.766 171.856 488.766 186.09L488.768 193.549C488.766 207.189 499.861 218.288 513.501 218.288Z" fill="#307ABB"/>
<path d="M773.293 541.096H766.253V516.727C766.253 502.011 752.912 494.771 742.586 492.152L725.729 460.45C724.442 458.032 722.062 456.389 719.344 456.046L628.334 444.563L698.919 406.761C705.072 403.466 707.389 395.804 704.093 389.651C700.8 383.496 693.141 381.181 686.983 384.475L592.818 434.906L483.363 261.479C481.819 259.034 479.129 257.551 476.236 257.551H207.553C204.096 257.551 200.991 259.659 199.719 262.874L133.394 430.327H68.5896C40.3343 430.327 24.7732 445.888 24.7732 474.143V541.161C10.9457 542.158 0 553.727 0 567.805V592.11C0 606.84 11.9821 618.822 26.7112 618.822H112.383C117.022 663.099 154.565 697.727 200.047 697.727C245.532 697.727 283.075 663.097 287.714 618.822H512.29C516.929 663.099 554.47 697.727 599.948 697.727C645.437 697.727 682.985 663.097 687.623 618.822H773.291C788.016 618.822 799.998 606.837 799.998 592.108V567.805C800 553.078 788.018 541.096 773.293 541.096ZM200.047 659.809C172.348 659.809 149.812 637.273 149.812 609.57C149.812 581.868 172.348 559.332 200.047 559.332C227.747 559.332 250.285 581.868 250.285 609.57C250.285 637.273 227.747 659.809 200.047 659.809ZM599.951 659.809C572.256 659.809 549.722 637.273 549.722 609.57C549.722 581.868 572.253 559.332 599.951 559.332C627.654 559.332 650.196 581.868 650.196 609.57C650.194 637.273 627.654 659.809 599.951 659.809Z" fill="#307ABB"/>
</svg>
