<svg width="289" height="284" viewBox="0 0 289 284" fill="none" xmlns="http://www.w3.org/2000/svg">
<ellipse cx="144.5" cy="142" rx="144.5" ry="142" fill="url(#paint0_linear_7107_17644)"/>
<path fill-rule="evenodd" clip-rule="evenodd" d="M144.001 82.875C129.573 82.875 117.876 94.5716 117.876 109C117.876 123.428 129.573 135.125 144.001 135.125C158.43 135.125 170.126 123.428 170.126 109C170.126 94.5716 158.43 82.875 144.001 82.875ZM126.126 109C126.126 99.1279 134.129 91.125 144.001 91.125C153.873 91.125 161.876 99.1279 161.876 109C161.876 118.872 153.873 126.875 144.001 126.875C134.129 126.875 126.126 118.872 126.126 109Z" fill="white"/>
<path d="M187.205 156.149C188.841 157.736 188.88 160.347 187.293 161.982L177.21 172.371C176.396 173.21 175.263 173.665 174.095 173.621C172.926 173.576 171.831 173.038 171.082 172.139L166.497 166.639C165.039 164.889 165.275 162.288 167.025 160.83C168.775 159.371 171.376 159.607 172.835 161.357L174.483 163.335L181.373 156.237C182.959 154.602 185.571 154.563 187.205 156.149Z" fill="white"/>
<path fill-rule="evenodd" clip-rule="evenodd" d="M159.261 144.821C154.462 143.882 149.327 143.375 144.001 143.375C131.276 143.375 119.553 146.267 110.866 151.154C102.308 155.968 95.8757 163.264 95.8757 172.25L95.8754 172.811C95.8692 179.201 95.8613 187.221 102.896 192.949C106.358 195.769 111.201 197.773 117.745 199.098C124.307 200.426 132.859 201.125 144.001 201.125C159.775 201.125 170.455 199.729 177.658 197.047C184.142 194.633 187.986 191.096 190.038 186.645C197.86 182.131 203.126 173.681 203.126 164C203.126 149.571 191.429 137.875 177.001 137.875C170.152 137.875 163.92 140.51 159.261 144.821ZM159.126 164C159.126 154.128 167.129 146.125 177.001 146.125C186.873 146.125 194.876 154.128 194.876 164C194.876 173.872 186.873 181.875 177.001 181.875C167.129 181.875 159.126 173.872 159.126 164ZM153.657 152.257C151.878 155.788 150.876 159.777 150.876 164C150.876 177.141 160.578 188.016 173.21 189.852C167.321 191.701 158.18 192.875 144.001 192.875C133.142 192.875 125.195 192.189 119.382 191.012C113.55 189.832 110.143 188.212 108.105 186.552C104.347 183.492 104.126 179.443 104.126 172.25C104.126 167.568 107.543 162.488 114.91 158.344C122.148 154.273 132.425 151.625 144.001 151.625C147.334 151.625 150.568 151.845 153.657 152.257Z" fill="white"/>
<defs>
<linearGradient id="paint0_linear_7107_17644" x1="-3.60431" y1="121.944" x2="295.226" y2="121.944" gradientUnits="userSpaceOnUse">
<stop stop-color="#47A7ED"/>
<stop offset="1" stop-color="#2E77B8"/>
</linearGradient>
</defs>
</svg>
