<svg width="40" height="40" viewBox="0 0 40 40" fill="none" xmlns="http://www.w3.org/2000/svg">
<path d="M37.565 10.6993C37.367 9.90837 36.9638 9.18364 36.3961 8.59836C35.8284 8.01308 35.1163 7.58799 34.3317 7.36602C31.465 6.66602 19.9983 6.66602 19.9983 6.66602C19.9983 6.66602 8.53168 6.66602 5.66502 7.43268C4.88043 7.65466 4.16831 8.07975 3.60059 8.66503C3.03288 9.2503 2.62966 9.97503 2.43168 10.766C1.90704 13.6753 1.65041 16.6265 1.66502 19.5827C1.64631 22.5611 1.90296 25.5349 2.43168 28.466C2.64995 29.2324 3.06219 29.9296 3.62859 30.4901C4.19498 31.0507 4.89638 31.4557 5.66502 31.666C8.53168 32.4327 19.9983 32.4327 19.9983 32.4327C19.9983 32.4327 31.465 32.4327 34.3317 31.666C35.1163 31.444 35.8284 31.0189 36.3961 30.4337C36.9638 29.8484 37.367 29.1237 37.565 28.3327C38.0856 25.4453 38.3422 22.5166 38.3317 19.5827C38.3504 16.6043 38.0937 13.6305 37.565 10.6993Z" fill="#090909"/>
<path d="M16.25 25.0328L25.8333 19.5828L16.25 14.1328V25.0328Z" stroke="white" stroke-width="2.5" stroke-linecap="round" stroke-linejoin="round"/>
</svg>
